<svg width="120" height="434" viewBox="0 0 120 434" fill="none" xmlns="http://www.w3.org/2000/svg">
<line x1="0.424194" y1="1.25" x2="118.644" y2="1.25" stroke="black" stroke-width="1.5"/>
<line x1="0.424194" y1="1.25" x2="118.644" y2="1.25" stroke="black" stroke-width="1.5"/>
<line x1="0.452148" y1="28.25" x2="118.672" y2="28.25" stroke="black" stroke-width="1.5"/>
<line x1="0.480103" y1="55.25" x2="118.7" y2="55.25" stroke="black" stroke-width="1.5"/>
<line x1="0.508057" y1="82.25" x2="118.728" y2="82.25" stroke="black" stroke-width="1.5"/>
<line x1="0.536011" y1="109.25" x2="118.755" y2="109.25" stroke="black" stroke-width="1.5"/>
<line x1="0.563965" y1="136.25" x2="118.783" y2="136.25" stroke="black" stroke-width="1.5"/>
<line x1="0.591919" y1="163.25" x2="118.811" y2="163.25" stroke="black" stroke-width="1.5"/>
<line x1="0.619873" y1="190.25" x2="118.839" y2="190.25" stroke="black" stroke-width="1.5"/>
<line x1="0.647827" y1="217.25" x2="118.867" y2="217.25" stroke="black" stroke-width="1.5"/>
<line x1="0.675903" y1="244.25" x2="118.895" y2="244.25" stroke="black" stroke-width="1.5"/>
<line x1="0.703857" y1="271.25" x2="118.923" y2="271.25" stroke="black" stroke-width="1.5"/>
<line x1="0.731812" y1="298.25" x2="118.951" y2="298.25" stroke="black" stroke-width="1.5"/>
<line x1="0.759766" y1="325.25" x2="118.979" y2="325.25" stroke="black" stroke-width="1.5"/>
<line x1="0.78772" y1="352.25" x2="119.007" y2="352.25" stroke="black" stroke-width="1.5"/>
<line x1="0.815674" y1="379.25" x2="119.035" y2="379.25" stroke="black" stroke-width="1.5"/>
<line x1="0.843628" y1="406.25" x2="119.063" y2="406.25" stroke="black" stroke-width="1.5"/>
<line x1="0.452148" y1="27.5" x2="118.672" y2="27.5" stroke="black" stroke-width="3"/>
<line x1="0.480103" y1="54.5" x2="118.7" y2="54.5" stroke="black" stroke-width="3"/>
<line x1="0.508057" y1="81.5" x2="118.728" y2="81.5" stroke="black" stroke-width="3"/>
<line x1="0.536011" y1="108.5" x2="118.755" y2="108.5" stroke="black" stroke-width="3"/>
<line x1="0.563965" y1="135.5" x2="118.783" y2="135.5" stroke="black" stroke-width="3"/>
<line x1="0.591919" y1="162.5" x2="118.811" y2="162.5" stroke="black" stroke-width="3"/>
<line x1="0.619873" y1="189.5" x2="118.839" y2="189.5" stroke="black" stroke-width="3"/>
<line x1="0.647827" y1="216.5" x2="118.867" y2="216.5" stroke="black" stroke-width="3"/>
<line x1="0.675903" y1="243.5" x2="118.895" y2="243.5" stroke="black" stroke-width="3"/>
<line x1="0.703857" y1="270.5" x2="118.923" y2="270.5" stroke="black" stroke-width="3"/>
<line x1="0.731812" y1="297.5" x2="118.951" y2="297.5" stroke="black" stroke-width="3"/>
<line x1="0.759766" y1="324.5" x2="118.979" y2="324.5" stroke="black" stroke-width="3"/>
<line x1="0.78772" y1="351.5" x2="119.007" y2="351.5" stroke="black" stroke-width="3"/>
<line x1="0.815674" y1="378.5" x2="119.035" y2="378.5" stroke="black" stroke-width="3"/>
<line x1="0.843628" y1="405.5" x2="119.063" y2="405.5" stroke="black" stroke-width="3"/>
<line x1="0.871582" y1="432.5" x2="119.091" y2="432.5" stroke="black" stroke-width="3"/>
<line x1="0.452148" y1="22.25" x2="118.672" y2="22.25" stroke="black" stroke-width="1.5"/>
<line x1="0.480103" y1="49.25" x2="118.7" y2="49.25" stroke="black" stroke-width="1.5"/>
<line x1="0.508057" y1="76.25" x2="118.728" y2="76.25" stroke="black" stroke-width="1.5"/>
<line x1="0.536011" y1="103.25" x2="118.755" y2="103.25" stroke="black" stroke-width="1.5"/>
<line x1="0.563965" y1="130.25" x2="118.783" y2="130.25" stroke="black" stroke-width="1.5"/>
<line x1="0.591919" y1="157.25" x2="118.811" y2="157.25" stroke="black" stroke-width="1.5"/>
<line x1="0.619873" y1="184.25" x2="118.839" y2="184.25" stroke="black" stroke-width="1.5"/>
<line x1="0.647827" y1="211.25" x2="118.867" y2="211.25" stroke="black" stroke-width="1.5"/>
<line x1="0.675903" y1="238.25" x2="118.895" y2="238.25" stroke="black" stroke-width="1.5"/>
<line x1="0.703857" y1="265.25" x2="118.923" y2="265.25" stroke="black" stroke-width="1.5"/>
<line x1="0.731812" y1="292.25" x2="118.951" y2="292.25" stroke="black" stroke-width="1.5"/>
<line x1="0.759766" y1="319.25" x2="118.979" y2="319.25" stroke="black" stroke-width="1.5"/>
<line x1="0.78772" y1="346.25" x2="119.007" y2="346.25" stroke="black" stroke-width="1.5"/>
<line x1="0.815674" y1="373.25" x2="119.035" y2="373.25" stroke="black" stroke-width="1.5"/>
<line x1="0.843628" y1="400.25" x2="119.063" y2="400.25" stroke="black" stroke-width="1.5"/>
<line x1="0.871582" y1="427.25" x2="119.091" y2="427.25" stroke="black" stroke-width="1.5"/>
<line x1="0.452148" y1="19.25" x2="118.672" y2="19.25" stroke="black" stroke-width="1.5"/>
<line x1="0.480103" y1="46.25" x2="118.7" y2="46.25" stroke="black" stroke-width="1.5"/>
<line x1="0.508057" y1="73.25" x2="118.728" y2="73.25" stroke="black" stroke-width="1.5"/>
<line x1="0.536011" y1="100.25" x2="118.755" y2="100.25" stroke="black" stroke-width="1.5"/>
<line x1="0.563965" y1="127.25" x2="118.783" y2="127.25" stroke="black" stroke-width="1.5"/>
<line x1="0.591919" y1="154.25" x2="118.811" y2="154.25" stroke="black" stroke-width="1.5"/>
<line x1="0.619873" y1="181.25" x2="118.839" y2="181.25" stroke="black" stroke-width="1.5"/>
<line x1="0.647827" y1="208.25" x2="118.867" y2="208.25" stroke="black" stroke-width="1.5"/>
<line x1="0.675903" y1="235.25" x2="118.895" y2="235.25" stroke="black" stroke-width="1.5"/>
<line x1="0.703857" y1="262.25" x2="118.923" y2="262.25" stroke="black" stroke-width="1.5"/>
<line x1="0.731812" y1="289.25" x2="118.951" y2="289.25" stroke="black" stroke-width="1.5"/>
<line x1="0.759766" y1="316.25" x2="118.979" y2="316.25" stroke="black" stroke-width="1.5"/>
<line x1="0.78772" y1="343.25" x2="119.007" y2="343.25" stroke="black" stroke-width="1.5"/>
<line x1="0.815674" y1="370.25" x2="119.035" y2="370.25" stroke="black" stroke-width="1.5"/>
<line x1="0.843628" y1="397.25" x2="119.063" y2="397.25" stroke="black" stroke-width="1.5"/>
<line x1="0.871582" y1="424.25" x2="119.091" y2="424.25" stroke="black" stroke-width="1.5"/>
<line x1="0.452148" y1="10.25" x2="118.672" y2="10.25" stroke="black" stroke-width="1.5"/>
<line x1="0.480103" y1="37.25" x2="118.7" y2="37.25" stroke="black" stroke-width="1.5"/>
<line x1="0.508057" y1="64.25" x2="118.728" y2="64.25" stroke="black" stroke-width="1.5"/>
<line x1="0.536011" y1="91.25" x2="118.755" y2="91.25" stroke="black" stroke-width="1.5"/>
<line x1="0.563965" y1="118.25" x2="118.783" y2="118.25" stroke="black" stroke-width="1.5"/>
<line x1="0.591919" y1="144.5" x2="118.811" y2="144.5" stroke="black" stroke-width="3"/>
<line x1="0.619873" y1="172.25" x2="118.839" y2="172.25" stroke="black" stroke-width="1.5"/>
<line x1="0.647827" y1="199.25" x2="118.867" y2="199.25" stroke="black" stroke-width="1.5"/>
<line x1="0.675903" y1="226.25" x2="118.895" y2="226.25" stroke="black" stroke-width="1.5"/>
<line x1="0.703857" y1="253.25" x2="118.923" y2="253.25" stroke="black" stroke-width="1.5"/>
<line x1="0.731812" y1="280.25" x2="118.951" y2="280.25" stroke="black" stroke-width="1.5"/>
<line x1="0.759766" y1="307.25" x2="118.979" y2="307.25" stroke="black" stroke-width="1.5"/>
<line x1="0.78772" y1="334.25" x2="119.007" y2="334.25" stroke="black" stroke-width="1.5"/>
<line x1="0.815674" y1="361.25" x2="119.035" y2="361.25" stroke="black" stroke-width="1.5"/>
<line x1="0.843628" y1="388.25" x2="119.063" y2="388.25" stroke="black" stroke-width="1.5"/>
<line x1="0.871582" y1="415.25" x2="119.091" y2="415.25" stroke="black" stroke-width="1.5"/>
<path d="M0.452148 5.25L118.672 5.25M1.3611 15.25H119.581" stroke="black" stroke-width="1.5"/>
<path d="M0.480103 32.25H118.7M1.38905 42.25H119.609" stroke="black" stroke-width="1.5"/>
<path d="M0.508057 59.25H118.728M1.41701 69.25H119.636" stroke="black" stroke-width="1.5"/>
<path d="M0.536011 86.25H118.755M1.44496 96.25H119.664" stroke="black" stroke-width="1.5"/>
<path d="M0.563965 113.25H118.783M1.47292 123.25H119.692" stroke="black" stroke-width="1.5"/>
<path d="M0.591919 140.25H118.811M1.50087 150.25H119.72" stroke="black" stroke-width="1.5"/>
<path d="M0.619873 167.25H118.839M1.52882 177.25H119.748" stroke="black" stroke-width="1.5"/>
<path d="M0.647827 194.25H118.867M1.55678 204.25H119.776" stroke="black" stroke-width="1.5"/>
<path d="M0.675903 221.25H118.895M1.58485 231.25H119.804" stroke="black" stroke-width="1.5"/>
<path d="M0.703857 248.25H118.923M1.61281 258.25H119.832" stroke="black" stroke-width="1.5"/>
<path d="M0.731812 275.25H118.951M1.64076 285.25H119.86" stroke="black" stroke-width="1.5"/>
<path d="M0.759766 302.25H118.979M1.66872 312.25H119.888" stroke="black" stroke-width="1.5"/>
<path d="M0.78772 329.25H119.007M1.69667 339.25H119.916" stroke="black" stroke-width="1.5"/>
<path d="M0.815674 356.25H119.035M1.72462 366.25H119.944" stroke="black" stroke-width="1.5"/>
<path d="M0.843628 383.25H119.063M1.75258 393.25H119.972" stroke="black" stroke-width="1.5"/>
<path d="M0.871582 410.25H119.091M1.78053 420.25H120" stroke="black" stroke-width="1.5"/>
</svg>
