<svg width="58" height="48" viewBox="0 0 58 48" fill="none" xmlns="http://www.w3.org/2000/svg">
<path d="M3.822 1.951C2.015 1.951 0.715 3.615 0.715 6.241C0.715 8.893 2.015 10.557 3.822 10.557C5.616 10.557 6.929 8.893 6.929 6.241C6.929 3.615 5.616 1.951 3.822 1.951ZM3.822 3.524C4.706 3.524 5.278 4.473 5.278 6.241C5.278 8.035 4.706 8.997 3.822 8.997C2.951 8.997 2.366 8.035 2.366 6.241C2.366 4.473 2.951 3.524 3.822 3.524ZM8.905 1.106V13.183H10.621V1.106H8.905ZM6.422 5.448V6.839H9.633V5.448H6.422ZM23.334 1.119V13.196H25.076V1.119H23.334ZM15.807 8.88V10.323H16.847C19.434 10.323 20.955 10.271 22.58 9.946L22.424 8.529C20.812 8.828 19.382 8.88 16.847 8.88H15.807ZM15.807 2.185V9.426H17.523V3.576H21.618V2.185H15.807ZM1.911 17.301V21.331H10.023V17.301H8.307V18.094H3.614V17.301H1.911ZM3.614 19.355H8.307V20.057H3.614V19.355ZM0.52 22.098V23.45H11.401V22.098H0.52ZM5.083 20.772V22.449H6.799V20.772H5.083ZM1.768 24.074V25.335H8.385V25.946H1.781V28.221H3.484V27.129H10.088V24.074H1.768ZM1.781 27.792V29.079H10.4V27.792H1.781ZM15.43 18.107V23.918H21.163V18.107H15.43ZM19.46 19.472V22.553H17.133V19.472H19.46ZM22.827 17.119V25.894H24.556V17.119H22.827ZM24.062 20.59V22.007H26.155V20.59H24.062ZM16.795 27.571V28.949H24.985V27.571H16.795ZM16.795 25.036V28.26H18.524V25.036H16.795ZM37.386 17.132V26.128H39.115V17.132H37.386ZM38.621 20.798V22.215H40.714V20.798H38.621ZM29.638 18.38V19.732H36.723V18.38H29.638ZM33.187 20.161C31.445 20.161 30.223 21.11 30.223 22.488C30.223 23.866 31.445 24.802 33.187 24.802C34.916 24.802 36.138 23.866 36.138 22.488C36.138 21.11 34.916 20.161 33.187 20.161ZM33.187 21.474C33.954 21.474 34.487 21.838 34.487 22.488C34.487 23.138 33.954 23.489 33.187 23.489C32.42 23.489 31.887 23.138 31.887 22.488C31.887 21.838 32.42 21.474 33.187 21.474ZM32.316 17.106V19.043H34.045V17.106H32.316ZM31.354 27.571V28.949H39.544V27.571H31.354ZM31.354 25.452V28.169H33.083V25.452H31.354ZM5.85 34.692V36.07H9.412V34.692H5.85ZM5.85 37.357V38.748H9.412V37.357H5.85ZM3.848 33.756C2.041 33.756 0.663 35.004 0.663 36.707C0.663 38.41 2.041 39.658 3.848 39.658C5.642 39.658 7.02 38.41 7.02 36.707C7.02 35.004 5.642 33.756 3.848 33.756ZM3.848 35.225C4.732 35.225 5.382 35.758 5.382 36.707C5.382 37.643 4.732 38.202 3.848 38.202C2.964 38.202 2.314 37.643 2.314 36.707C2.314 35.758 2.964 35.225 3.848 35.225ZM8.866 33.119V40.165H10.595V33.119H8.866ZM6.513 40.412C3.978 40.412 2.392 41.296 2.392 42.791C2.392 44.286 3.978 45.157 6.513 45.157C9.048 45.157 10.634 44.286 10.634 42.791C10.634 41.296 9.048 40.412 6.513 40.412ZM6.513 41.751C8.099 41.751 8.931 42.089 8.931 42.791C8.931 43.493 8.099 43.831 6.513 43.831C4.94 43.831 4.095 43.493 4.095 42.791C4.095 42.089 4.94 41.751 6.513 41.751ZM17.861 40.243V42.193H19.59V40.243H17.861ZM22.918 33.119V45.157H24.66V33.119H22.918ZM24.049 38.007V39.437H26.168V38.007H24.049ZM15.157 43.155C17.185 43.155 19.915 43.155 22.45 42.661L22.32 41.413C19.889 41.751 17.029 41.764 14.949 41.764L15.157 43.155ZM15.17 34.445V35.797H22.255V34.445H15.17ZM18.732 36.278C17.003 36.278 15.794 37.188 15.794 38.527C15.794 39.879 17.003 40.789 18.732 40.789C20.448 40.789 21.67 39.879 21.67 38.527C21.67 37.188 20.448 36.278 18.732 36.278ZM18.732 37.578C19.512 37.578 20.032 37.916 20.032 38.527C20.032 39.151 19.512 39.489 18.732 39.489C17.939 39.489 17.432 39.151 17.432 38.527C17.432 37.916 17.939 37.578 18.732 37.578ZM17.861 33.184V35.459H19.59V33.184H17.861ZM30.964 40.165V45.027H35.358V40.165H33.759V41.348H32.563V40.165H30.964ZM32.563 42.596H33.759V43.727H32.563V42.596ZM37.217 40.074V40.971C37.217 42.102 36.632 43.259 35.189 43.857L36.034 45.144C37.815 44.455 38.53 42.739 38.53 40.971V40.074H37.217ZM37.62 40.074V40.971C37.62 42.869 38.296 44.494 40.116 45.144L40.974 43.857C39.505 43.363 38.933 42.219 38.933 40.971V40.074H37.62ZM35.722 35.693V37.097H38.738V35.693H35.722ZM32.966 33.574C31.146 33.574 29.781 34.744 29.781 36.408C29.781 38.072 31.146 39.255 32.966 39.255C34.773 39.255 36.138 38.072 36.138 36.408C36.138 34.744 34.773 33.574 32.966 33.574ZM32.966 34.991C33.85 34.991 34.487 35.524 34.487 36.408C34.487 37.292 33.85 37.838 32.966 37.838C32.082 37.838 31.432 37.292 31.432 36.408C31.432 35.524 32.082 34.991 32.966 34.991ZM37.984 33.119V39.489H39.713V33.119H37.984ZM53.18 37.669V39.086H55.299V37.669H53.18ZM51.893 33.106V45.144H53.635V33.106H51.893ZM44.561 34.263V41.738H46.29V34.263H44.561ZM44.561 40.776V42.206H45.601C47.369 42.206 49.306 42.102 51.295 41.686L51.113 40.269C49.176 40.659 47.317 40.776 45.601 40.776H44.561Z" fill="black"/>
<rect x="28" width="30" height="13" rx="6.5" fill="black"/>
<rect x="43" y="18" width="15" height="10" rx="5" fill="black"/>
</svg>
