<svg width="25" height="25" viewBox="0 0 25 25" fill="none" xmlns="http://www.w3.org/2000/svg">
<path d="M9.89581 4.16663C11.1912 4.1666 12.4594 4.53816 13.5499 5.23722C14.6405 5.93628 15.5076 6.93349 16.0484 8.11056C16.5892 9.28762 16.7811 10.5951 16.6012 11.8779C16.4212 13.1607 15.8771 14.365 15.0333 15.3479L20.9125 21.227L20.176 21.9635L14.2958 16.0833C13.4665 16.7925 12.4781 17.2907 11.4147 17.5356C10.3514 17.7805 9.2446 17.7647 8.18865 17.4897C7.1327 17.2146 6.15887 16.6885 5.35009 15.956C4.54131 15.2235 3.92155 14.3063 3.54359 13.2827C3.16563 12.2591 3.04068 11.1592 3.17936 10.0769C3.31805 8.99458 3.71627 7.9618 4.3401 7.06653C4.96394 6.17126 5.79491 5.44002 6.76225 4.9351C7.72958 4.43019 8.80462 4.16654 9.89581 4.16663V4.16663ZM9.89581 5.20829C8.37634 5.20829 6.9191 5.8119 5.84467 6.88633C4.77025 7.96075 4.16664 9.41799 4.16664 10.9375C4.16664 12.4569 4.77025 13.9142 5.84467 14.9886C6.9191 16.063 8.37634 16.6666 9.89581 16.6666C11.4153 16.6666 12.8725 16.063 13.9469 14.9886C15.0214 13.9142 15.625 12.4569 15.625 10.9375C15.625 9.41799 15.0214 7.96075 13.9469 6.88633C12.8725 5.8119 11.4153 5.20829 9.89581 5.20829Z" fill="white"/>
</svg>
