<svg width="110" height="160" viewBox="0 0 110 160" fill="none" xmlns="http://www.w3.org/2000/svg">
<rect width="110" height="160" fill="#D9D9D9"/>
<path d="M47.04 87.59V87.86C47.04 88.96 45.59 89.86 43.99 90.07L44.3 90.74C46.15 90.46 47.78 89.39 47.78 87.86V87.59H47.04ZM47.39 87.59V87.86C47.39 89.39 49.02 90.46 50.86 90.74L51.18 90.07C49.58 89.86 48.12 88.96 48.12 87.86V87.59H47.39ZM44.24 87.19V87.86H50.93V87.19H44.24ZM43.49 91.39V92.07H51.68V91.39H43.49ZM47.23 91.81V93.89H48.06V91.81H47.23ZM44.53 94.9V95.58H50.77V94.9H44.53ZM44.53 93.02V95.16H45.35V93.02H44.53ZM59.2592 86.73V95.79H60.0892V86.73H59.2592ZM53.2092 87.5V93.61H57.4692V87.5H56.6392V89.89H54.0292V87.5H53.2092ZM54.0292 90.55H56.6392V92.93H54.0292V90.55ZM65.5584 91.26V92.84H66.3884V91.26H65.5584ZM61.8884 90.97V91.64H70.0584V90.97H61.8884ZM65.9684 92.59C64.0284 92.59 62.8684 93.16 62.8684 94.18C62.8684 95.19 64.0284 95.76 65.9684 95.76C67.9084 95.76 69.0684 95.19 69.0684 94.18C69.0684 93.16 67.9084 92.59 65.9684 92.59ZM65.9684 93.23C67.3884 93.23 68.2284 93.57 68.2284 94.18C68.2284 94.78 67.3884 95.12 65.9684 95.12C64.5584 95.12 63.7084 94.78 63.7084 94.18C63.7084 93.57 64.5584 93.23 65.9684 93.23ZM65.4384 87.48V87.75C65.4384 88.78 63.9684 89.59 62.3484 89.76L62.6484 90.42C64.5184 90.19 66.1784 89.21 66.1784 87.75V87.48H65.4384ZM65.7884 87.48V87.75C65.7884 89.21 67.4384 90.19 69.3084 90.42L69.6084 89.76C67.9884 89.59 66.5184 88.78 66.5184 87.75V87.48H65.7884ZM62.6384 87.15V87.82H69.3284V87.15H62.6384Z" fill="#545454"/>
<path d="M63.6215 66.6185H60.87L60.2145 64.7227C60.1692 64.5929 60.0862 64.4808 59.9769 64.4016C59.8675 64.3224 59.7371 64.2799 59.6035 64.28H53.3965C53.1234 64.28 52.8786 64.4575 52.7875 64.7227L52.13 66.6185H49.3785C48.4843 66.6185 47.76 67.366 47.76 68.2888V77.8097C47.76 78.7326 48.4843 79.48 49.3785 79.48H63.6215C64.5157 79.48 65.24 78.7326 65.24 77.8097V68.2888C65.24 67.366 64.5157 66.6185 63.6215 66.6185ZM56.5 76.1394C54.7115 76.1394 53.263 74.6444 53.263 72.7987C53.263 70.953 54.7115 69.4581 56.5 69.4581C58.2885 69.4581 59.737 70.953 59.737 72.7987C59.737 74.6444 58.2885 76.1394 56.5 76.1394ZM54.5578 72.7987C54.5578 73.3303 54.7624 73.8401 55.1267 74.216C55.4909 74.5919 55.9849 74.8031 56.5 74.8031C57.0151 74.8031 57.5091 74.5919 57.8734 74.216C58.2376 73.8401 58.4422 73.3303 58.4422 72.7987C58.4422 72.2671 58.2376 71.7573 57.8734 71.3814C57.5091 71.0055 57.0151 70.7943 56.5 70.7943C55.9849 70.7943 55.4909 71.0055 55.1267 71.3814C54.7624 71.7573 54.5578 72.2671 54.5578 72.7987Z" fill="#545454"/>
</svg>
