<svg width="110" height="160" viewBox="0 0 110 160" fill="none" xmlns="http://www.w3.org/2000/svg">
<rect width="110" height="160" fill="#D9D9D9"/>
<g clip-path="url(#clip0_219_12)">
<path d="M60.9579 74.6229H58.656L58.1075 72.6854C58.0697 72.5528 58.0002 72.4382 57.9087 72.3573C57.8172 72.2763 57.7082 72.2329 57.5964 72.233H52.4034C52.1749 72.233 51.9701 72.4144 51.8939 72.6854L51.3438 74.6229H49.0418C48.2937 74.6229 47.6877 75.3868 47.6877 76.3299V86.06C47.6877 87.0031 48.2937 87.767 49.0418 87.767H60.9579C61.7061 87.767 62.312 87.0031 62.312 86.06V76.3299C62.312 75.3868 61.7061 74.6229 60.9579 74.6229ZM54.9999 84.353C53.5036 84.353 52.2917 82.8252 52.2917 80.9389C52.2917 79.0526 53.5036 77.5248 54.9999 77.5248C56.4962 77.5248 57.7081 79.0526 57.7081 80.9389C57.7081 82.8252 56.4962 84.353 54.9999 84.353ZM53.375 80.9389C53.375 81.4822 53.5462 82.0032 53.8509 82.3874C54.1556 82.7715 54.5689 82.9873 54.9999 82.9873C55.4308 82.9873 55.8441 82.7715 56.1489 82.3874C56.4536 82.0032 56.6248 81.4822 56.6248 80.9389C56.6248 80.3956 56.4536 79.8746 56.1489 79.4904C55.8441 79.1063 55.4308 78.8905 54.9999 78.8905C54.5689 78.8905 54.1556 79.1063 53.8509 79.4904C53.5462 79.8746 53.375 80.3956 53.375 80.9389Z" fill="#545454"/>
</g>
<defs>
<clipPath id="clip0_219_12">
<rect width="15.896" height="19.4175" fill="white" transform="translate(47.052 69.903)"/>
</clipPath>
</defs>
</svg>
