<svg width="25" height="25" viewBox="3 0 20 20" fill="none" xmlns="http://www.w3.org/2000/svg">
<path d="M20.4505 7.04257L15.3543 6.1301L13.0761 0.440169C13.0139 0.284382 12.9115 0.158269 12.7851 0.0816118C12.4679 -0.111267 12.0825 0.0494654 11.924 0.440169L9.64581 6.1301L4.54954 7.04257C4.40904 7.0673 4.28057 7.1489 4.18222 7.27254C4.06332 7.4231 3.9978 7.62566 4.00006 7.8357C4.00231 8.04575 4.07217 8.24609 4.19427 8.39272L7.88148 12.8215L7.01036 19.0753C6.98993 19.2207 7.003 19.3703 7.04808 19.5071C7.09316 19.6439 7.16845 19.7624 7.26541 19.8492C7.36237 19.9359 7.47713 19.9875 7.59666 19.998C7.7162 20.0085 7.83573 19.9775 7.9417 19.9086L12.5 16.9561L17.0584 19.9086C17.1828 19.9902 17.3273 20.0174 17.4658 19.9877C17.8151 19.9135 18.0499 19.5055 17.9897 19.0753L17.1186 12.8215L20.8058 8.39272C20.9062 8.27156 20.9724 8.1133 20.9925 7.9402C21.0467 7.50746 20.8018 7.10686 20.4505 7.04257Z" fill="currentColor"/>
</svg>
